# xmcd
#
# Track frame offsets: 
#        150
#        13705
#        35597
#        51037
#        60630
#        72835
#        85737
#        97150
#        111222
#        124662
#
# Disc length: 2146 seconds
#
# Revision: 2
# Processed by: cddbd v1.5.1PL0 Copyright (c) Steve Scherf et al.
# Submitted via: ExactAudioCopy v0.95a5
#
DISCID=8308600a
DTITLE=King Curtis - Trouble In Mind
DYEAR=1969
DGENRE=Blues
TTITLE0=Trouble In Mind
TTITLE1=Jivin' Time
TTITLE2=Nobody Wants You When You're Down and Out
TTITLE3=Bad, Bad Whiskey
TTITLE4=I Have to Worry
TTITLE5=Woke Up This Morinng
TTITLE6=But That's Alright
TTITLE7=Ain't Nobody's Business
TTITLE8=Don't Deceive Me (Please Don't Go)
TTITLE9=Deep Fry
EXTD=
EXTT0=
EXTT1=
EXTT2=
EXTT3=
EXTT4=
EXTT5=
EXTT6=
EXTT7=
EXTT8=
EXTT9=
PLAYORDER=
